<mxfile host="app.diagrams.net" modified="2023-11-07T06:37:22.203Z" agent="Mozilla/5.0 (Macintosh; Intel Mac OS X 10_15_7) AppleWebKit/537.36 (KHTML, like Gecko) Chrome/118.0.0.0 Safari/537.36" version="22.0.8" etag="hSAg-M9R_SwnpXLTTD9V" type="github">
  <diagram name="Page-1" id="XBQ9nPtsmAp2nU9Vu8VO">
    <mxGraphModel>
      <root>
        <mxCell id="0" />
        <mxCell id="1" parent="0" />
      </root>
    </mxGraphModel>
  </diagram>
</mxfile>
